# xmcd
#
# Track frame offsets:
#	150
#	18727
#	34039
#	51838
#	66298
#	84034
#	112899
#	129561
#	144537
#	161125
#	179671
#	193766
#	211166
#	231496
# Disc length: 3324 seconds
# Revision: 1
# Processed by: cddbd v1.5.1PL2 Copyright (c) Steve Scherf et al.
#
# Submitted via: libkcddb 0.10
#
DISCID=c80cfa0e
DTITLE=Chris Norman - The Best Of
DYEAR=2002
DGENRE=Pop
TTITLE0=Midnight Lady
TTITLE1=Baby I Miss You
TTITLE2=Under Your Spell
TTITLE3=Independent Girl
TTITLE4=For You
TTITLE5=All Aboard For America
TTITLE6=Some Hearts Are Diamonds
TTITLE7=Broken Heroes
TTITLE8=Into The Night
TTITLE9=Obsession
TTITLE10=Long Way From Home
TTITLE11=Love Is A Bridge Between Two Hearts
TTITLE12=Cryin' Time
TTITLE13=Follow Me
EXTD=
EXTT0=
EXTT1=
EXTT2=
EXTT3=
EXTT4=
EXTT5=
EXTT6=
EXTT7=
EXTT8=
EXTT9=
EXTT10=
EXTT11=
EXTT12=
EXTT13=
PLAYORDER=
